# xmcd CD database file
#
# Track frame offsets:
#	150
#	16797
#	31157
#	43802
#	58462
#	71590
#	87330
#	104232
#	120965
#	133950
#
# Disc length: 2023 seconds
#
# Revision: 1
# Processed by: cddbd v1.5.2PL0 Copyright (c) Steve Scherf et al.
# Submitted via: CDex 1.51
#
DISCID=8e07e50a
DTITLE=Various Artist - Exitos Norteños
DYEAR=1998
DGENRE=Country
TTITLE0=El Golpe Traidor
TTITLE1=El Chubasco
TTITLE2=El Asesino
TTITLE3=Los Dos Amigos
TTITLE4=Las Tres Tumbas
TTITLE5=El Palomito
TTITLE6=Cuestión Olvidada
TTITLE7=Hasta la miel amarga
TTITLE8=Te vas Angel Mio
TTITLE9=Camelia la Texana
EXTD=YEAR: 1998
EXTT0=
EXTT1=
EXTT2=
EXTT3=
EXTT4=
EXTT5=
EXTT6=
EXTT7=
EXTT8=
EXTT9=
PLAYORDER=
